<svg width="153" height="48" viewBox="0 0 153 48" fill="none" xmlns="http://www.w3.org/2000/svg">
<path d="M130.861 48H138.465L153 11.9046H145.349L139.324 27.0139L132.917 11.9046H125.027L135.689 36L130.861 48Z" fill="black"/>
<path d="M117.594 38.5328H124.816V0L117.594 2.38966V38.5328Z" fill="black"/>
<path d="M108.961 38.5328H117.423L107.621 23.3757L117.996 11.9006H108.814L99.7743 22.0358V0H92.5524V38.5328H99.7743V31.7455L102.642 28.6362L108.953 38.5328H108.961Z" fill="black"/>
<path d="M76.3628 38.8708C78.1802 38.8708 79.9976 38.4891 81.6718 37.8171C83.2984 37.1014 84.7817 36.1431 86.0225 34.9026C87.2672 33.6103 88.2217 32.1789 88.9375 30.5527C89.6533 28.8787 89.9913 27.0616 89.9913 25.2445C89.9913 23.4274 89.6573 21.6103 88.9375 19.9364C88.2217 18.3101 87.2632 16.827 86.0225 15.5865C84.73 14.3419 83.2984 13.3877 81.6718 12.672C79.9976 11.9563 78.1802 11.6183 76.3628 11.6183C74.5454 11.6183 72.728 11.9523 71.0537 12.672C69.4272 13.3877 67.9916 14.3459 66.7031 15.5865C65.4584 16.8787 64.5039 18.3101 63.7881 19.9364C63.12 21.6103 62.7343 23.3797 62.7343 25.2445C62.7343 27.1093 63.116 28.8787 63.7881 30.5527C64.5039 32.1789 65.4623 33.6143 66.7031 34.9026C67.9956 36.1471 69.4272 37.1014 71.0537 37.8171C72.728 38.4851 74.5454 38.8708 76.3628 38.8708ZM76.3628 18.7912C79.9022 18.7912 82.8172 21.7058 82.8172 25.2445C82.8172 28.7833 79.9022 31.6978 76.3628 31.6978C72.8234 31.6978 69.9084 28.7833 69.9084 25.2445C69.9084 21.7058 72.8234 18.7912 76.3628 18.7912Z" fill="black"/>
<path d="M19.033 38.8708C25.3442 38.8708 31.2259 35.7137 34.7653 30.5049L28.5496 26.2982C26.3981 29.4552 22.8587 31.3678 19.033 31.3678C15.9709 31.3678 13.0559 30.171 10.9044 28.0199C8.70525 25.8211 7.50823 22.9503 7.50823 19.8449C7.50823 16.7395 8.70525 13.9165 10.9044 11.7177C13.0559 9.56658 15.9749 8.36976 19.033 8.36976C22.8587 8.36976 26.4458 10.2823 28.5973 13.4871L34.813 9.2803C31.2737 4.01588 25.392 0.858826 19.033 0.858826C16.4521 0.858826 13.9626 1.33596 11.6203 2.34193C9.37335 3.2962 7.31734 4.68388 5.59538 6.40555C3.8257 8.17493 2.48551 10.1829 1.53107 12.4771C0.524939 14.8191 0 17.3042 0 19.8409C0 22.3777 0.524939 24.9105 1.53107 27.2525C2.48551 29.499 3.8257 31.5547 5.59538 33.2763C7.31734 35.0457 9.37335 36.4334 11.6203 37.3877C13.9626 38.3419 16.4481 38.8708 19.033 38.8708Z" fill="black"/>
<path d="M40.6351 38.4215C40.6351 35.8569 40.6351 33.3758 40.6351 30.835C38.9569 30.8668 37.6167 30.1829 36.4197 29.169C35.2068 28.1431 34.4154 26.839 34.137 25.2803C33.4331 21.332 35.8351 17.7495 39.6528 16.9344C40.9692 16.6521 42.1781 16.9543 43.4308 17.169C43.6694 17.2088 44.0711 17.0577 44.2023 16.8628C45.4988 14.9344 47.0736 13.3201 49.3364 12.6243C53.007 11.495 56.3396 12.2306 58.9961 15.0259C62.0025 18.1869 62.3406 23.161 59.6324 26.843C58.3359 28.6084 56.5742 29.5944 54.4903 30.2187V39.1133C54.2478 39.1332 54.0489 39.165 53.854 39.165C49.7102 39.165 45.5703 39.165 41.4265 39.173C40.9533 39.173 40.4999 39.2127 40.6351 38.4294M43.8921 18.7555C41.7407 17.662 39.6091 17.7336 37.6843 19.1571C35.6243 20.6799 34.7574 22.8509 35.4533 25.332C36.3242 28.4414 38.6467 29.7893 41.8799 29.7893V35.5706H43.4984V32.7714C43.8921 32.7913 44.1983 32.8032 44.5881 32.8231V35.5785H46.8588V32.827H47.9485V35.5547H50.43V32.8191H51.3089V35.5666H53.1899C53.2178 35.4553 53.2456 35.4036 53.2456 35.3479C53.2496 33.9881 53.2535 32.6243 53.2535 31.2644C53.2535 29.9629 53.8607 29.1067 55.0749 28.6958C58.0496 27.6938 60.5908 24.171 60.3323 21.2565C60.1812 19.5587 59.7159 17.9563 58.6421 16.5328C56.614 13.8489 53.6592 12.9821 50.8635 13.499C47.9763 14.0358 45.9601 15.841 44.8903 18.6243C44.7113 19.0934 44.4409 19.3241 43.9001 18.7515M52.2554 37.9245H53.2018V36.5527H41.9435V37.9245H52.2593H52.2554Z" fill="#E09400"/>
<path d="M36.9486 20.7356C37.9627 19.5228 39.1676 18.8747 40.7623 18.9145V19.7137C38.2808 20.2425 36.9685 21.6143 36.877 23.829H35.8391C35.9822 22.7435 36.0936 21.658 36.9446 20.7395L36.9486 20.7356Z" fill="#E09400"/>
</svg>
