<?xml version="1.0" encoding="UTF-8"?>
<svg xmlns="http://www.w3.org/2000/svg" viewBox="0 0 390.35 120.72">
  <defs>
    <style>
      .cls-1 {
        fill: #414243;
      }
    </style>
  </defs>
  <path id="path624263" class="cls-1" d="m334.68,120.72h19.12l36.55-90.78h-19.24l-15.15,38-16.11-38h-19.84l26.81,60.6-12.14,30.18Z"/>
  <path id="path624261" class="cls-1" d="m301.33,96.91h18.16V0l-18.16,6.01v90.9Z"/>
  <path id="path624259" class="cls-1" d="m279.62,96.91h21.28l-24.65-38.12,26.09-28.86h-23.09l-22.73,25.49V0h-18.16v96.91h18.16v-17.07l7.21-7.82,15.87,24.89Z"/>
  <path id="path624257" class="cls-1" d="m197.64,97.76c4.57,0,9.14-.96,13.35-2.65,4.09-1.8,7.82-4.21,10.94-7.33,3.13-3.25,5.53-6.85,7.33-10.94,1.8-4.21,2.65-8.78,2.65-13.35s-.84-9.14-2.65-13.35c-1.8-4.09-4.21-7.82-7.33-10.94-3.25-3.13-6.85-5.53-10.94-7.33-4.21-1.8-8.78-2.65-13.35-2.65s-9.14.84-13.35,2.65c-4.09,1.8-7.7,4.21-10.94,7.33-3.13,3.25-5.53,6.85-7.33,10.94-1.68,4.21-2.65,8.66-2.65,13.35s.96,9.14,2.65,13.35c1.8,4.09,4.21,7.7,7.33,10.94,3.25,3.13,6.85,5.53,10.94,7.33,4.21,1.68,8.78,2.65,13.35,2.65Zm0-50.5c8.9,0,16.23,7.33,16.23,16.23s-7.33,16.23-16.23,16.23-16.23-7.33-16.23-16.23,7.33-16.23,16.23-16.23Z"/>
  <path id="path624253" class="cls-1" d="m47.86,97.76c15.87,0,30.66-7.94,39.56-21.04l-15.63-10.58c-5.41,7.94-14.31,12.75-23.93,12.75-7.7,0-15.03-3.01-20.44-8.42-5.53-5.53-8.54-12.75-8.54-20.56s3.01-14.91,8.54-20.44c5.41-5.41,12.75-8.42,20.44-8.42,9.62,0,18.64,4.81,24.05,12.87l15.63-10.58C78.64,10.1,63.85,2.16,47.86,2.16c-6.49,0-12.75,1.2-18.64,3.73-5.65,2.4-10.82,5.89-15.15,10.22-4.45,4.45-7.82,9.5-10.22,15.27-2.53,5.89-3.85,12.14-3.85,18.52s1.32,12.75,3.85,18.64c2.4,5.65,5.77,10.82,10.22,15.15,4.33,4.45,9.5,7.94,15.15,10.34,5.89,2.4,12.14,3.73,18.64,3.73h0Z"/>
  <path id="path624257-2" class="cls-1" d="m122.64,97.76c4.57,0,9.14-.96,13.35-2.65,4.09-1.8,7.82-4.21,10.94-7.33,3.13-3.25,5.53-6.85,7.33-10.94,1.8-4.21,2.65-8.78,2.65-13.35s-.84-9.14-2.65-13.35c-1.8-4.09-4.21-7.82-7.33-10.94-3.25-3.13-6.85-5.53-10.94-7.33-4.21-1.8-8.78-2.65-13.35-2.65s-9.14.84-13.35,2.65c-4.09,1.8-7.7,4.21-10.94,7.33-3.13,3.25-5.53,6.85-7.33,10.94-1.68,4.21-2.65,8.66-2.65,13.35s.96,9.14,2.65,13.35c1.8,4.09,4.21,7.7,7.33,10.94,3.25,3.13,6.85,5.53,10.94,7.33,4.21,1.68,8.78,2.65,13.35,2.65Zm0-50.5c8.9,0,16.23,7.33,16.23,16.23s-7.33,16.23-16.23,16.23-16.23-7.33-16.23-16.23,7.33-16.23,16.23-16.23Z"/>
</svg>
